<svg xmlns="http://www.w3.org/2000/svg" width="48" height="48" viewBox="0 0 48 48"><g transform="translate(0 -1004.362)"><circle cx="24" cy="1028.362" r="24" fill="#50b748" fill-rule="evenodd"/><path fill="#10a711" style="line-height:normal;text-indent:0;text-align:start;text-decoration-line:none;text-decoration-style:solid;text-decoration-color:#000;text-transform:none;block-progression:tb;isolation:auto;mix-blend-mode:normal" d="M 28.474609 7.0234375 A 0.50005 0.50005 0 0 0 28.416016 7.0332031 C 27.611948 7.1624031 26.837904 7.4337906 26.132812 7.8378906 C 23.914519 9.1221903 22.68766 11.509172 22.75 13.976562 L 22.199219 13.425781 C 22.048715 13.275285 21.890713 13.133201 21.726562 12.998047 C 21.702447 12.978193 21.674786 12.962869 21.650391 12.943359 C 21.493371 12.817772 21.332096 12.696734 21.164062 12.585938 C 21.110657 12.550727 21.054451 12.519983 21 12.486328 C 20.867666 12.404526 20.733887 12.326234 20.595703 12.253906 C 20.506019 12.206958 20.414253 12.163906 20.322266 12.121094 C 20.199662 12.064037 20.075653 12.010411 19.949219 11.960938 C 19.866539 11.92857 19.783431 11.89817 19.699219 11.869141 C 19.551002 11.818066 19.400653 11.772832 19.248047 11.732422 C 19.173886 11.71278 19.100508 11.692832 19.025391 11.675781 C 18.847778 11.635458 18.666843 11.603519 18.484375 11.578125 C 18.432681 11.570935 18.382126 11.560646 18.330078 11.554688 C 18.087407 11.526868 17.843148 11.509961 17.59375 11.509766 A 0.50004997 0.50004997 0 0 0 17.591797 11.509766 C 16.817777 11.509766 16.051307 11.654734 15.326172 11.927734 A 0.50004997 0.50004997 0 0 0 15.003906 12.451172 C 15.044732 12.814372 15.118857 13.165928 15.214844 13.507812 C 15.223931 13.540192 15.230676 13.573304 15.240234 13.605469 C 15.335995 13.92768 15.458932 14.236417 15.599609 14.535156 C 15.620419 14.579348 15.638416 14.624338 15.660156 14.667969 C 15.804572 14.957848 15.971113 15.233073 16.154297 15.496094 C 16.181645 15.53536 16.208167 15.57466 16.236328 15.613281 C 16.426334 15.873913 16.63273 16.120462 16.857422 16.349609 C 16.872581 16.365069 16.885084 16.38313 16.900391 16.398438 L 23.099609 22.597656 L 23.099609 24 L 16.351562 24 C 15.923595 24 15.566406 24.360709 15.566406 24.787109 L 15.566406 27.208984 C 15.566406 27.315584 15.588713 27.417941 15.628906 27.511719 L 15.628906 27.513672 C 15.656 27.57669 15.700333 27.627913 15.742188 27.681641 C 15.762257 27.707345 15.773884 27.738623 15.796875 27.761719 L 15.798828 27.761719 L 15.798828 27.763672 L 16.779297 28.744141 L 17.919922 39 L 26.732422 47.814453 A 23.999998 23.999998 0 0 0 47.886719 26.259766 L 28.953125 7.3242188 A 0.50005 0.50005 0 0 0 28.474609 7.0253906 L 28.474609 7.0234375 z " color="#000" font-family="sans-serif" font-weight="400" transform="translate(0 1004.362)" white-space="normal"/><path fill="#fff" d="m 28.473713,1011.3856 a 0.50005,0.50005 0 0 0 -0.05859,0.01 c -0.804068,0.1292 -1.578117,0.4006 -2.283207,0.8047 -2.240057,1.2969 -3.473374,3.7178 -3.384765,6.2109 -1.204771,-1.5524 -3.076665,-2.5375 -5.154297,-2.5391 a 0.50004997,0.50004997 0 0 0 -0.002,0 c -0.77402,0 -1.540443,0.145 -2.265578,0.418 a 0.50004997,0.50004997 0 0 0 -0.322266,0.5233 c 0.374673,3.3332 3.175742,5.8627 6.503906,5.8652 a 0.50004997,0.50004997 0 0 0 0.002,0 c 0.537003,0 1.070856,-0.074 1.589844,-0.207 l 0,5.8906 -6.748047,0 c -0.427968,0 -0.785203,0.3607 -0.785203,0.7871 l 0,2.4219 c 0,0.4264 0.357445,0.7871 0.785156,0.7871 l 0.34375,0 1.22461,11.0039 11.310546,0 1.226563,-11.0039 0.324219,0 c 0.427711,0 0.785156,-0.3607 0.785156,-0.7871 l 0,-2.4219 c 0,-0.4264 -0.357235,-0.7871 -0.785156,-0.7871 l -6.681641,0 0,-1.3262 c 0.320336,0.071 0.64533,0.12 0.974609,0.1211 a 0.50004997,0.50004997 0 0 0 0.002,0 c 2.312089,0 4.267541,-1.7271 4.529296,-4.0078 a 0.50004997,0.50004997 0 0 0 -0.324264,-0.5274 c -0.504357,-0.1859 -1.038153,-0.2814 -1.576172,-0.2832 a 0.50004997,0.50004997 0 0 0 -0.002,0 c -1.454094,0 -2.764708,0.6835 -3.603516,1.7579 l 0,-2.2715 a 0.50004997,0.50004997 0 0 0 0,-0.076 l 0,-0.4922 c 0.723273,-0.1414 1.419445,-0.3933 2.058641,-0.7598 a 0.50005,0.50005 0 0 0 0.002,0 c 3.024145,-1.7509 4.2204,-5.5502 2.792922,-8.8105 a 0.50005,0.50005 0 0 0 -0.478516,-0.2988 l 0,0 z m -0.332031,1.1446 c 0.948149,2.7034 -0.03667,5.6805 -2.484375,7.0976 -0.325373,0.1864 -0.680634,0.3013 -1.041016,0.4024 l 2.441407,-3.2032 a 0.50005,0.50005 0 0 0 -0.425782,-0.8086 0.50005,0.50005 0 0 0 -0.371094,0.2032 l -2.33789,3.0722 c -0.485684,-2.4494 0.52054,-4.9612 2.707031,-6.2285 0.466935,-0.2677 0.989243,-0.4075 1.511719,-0.5351 z m -10.548828,4.3417 0.002,0 c 2.313179,0 4.271614,1.4592 5.083984,3.5469 l -2.878953,-1.5293 a 0.50005,0.50005 0 0 0 -0.240234,-0.062 0.50005,0.50005 0 0 0 -0.228516,0.9453 l 3.263672,1.7344 c -0.357655,0.092 -0.717788,0.1705 -1.087891,0.1719 -2.665897,0 -4.864791,-1.9324 -5.376953,-4.5371 0.479642,-0.1358 0.963484,-0.2677 1.462891,-0.2696 z m 10.109375,6.4668 0.002,0 c 0.233595,9e-4 0.455566,0.077 0.683594,0.1231 -0.403351,1.5241 -1.668475,2.6932 -3.310547,2.6953 -0.08019,-3e-4 -0.157978,-0.018 -0.236328,-0.031 l 1.572265,-0.9297 a 0.50005,0.50005 0 0 0 -0.236328,-0.9336 l 0,0 a 0.50005,0.50005 0 0 0 -0.271484,0.07 l -1.046875,0.6191 c 0.604581,-0.9628 1.618818,-1.6136 2.84375,-1.6152 z m -11.136719,6.0235 14,0 0,1.9941 -13.984375,0 0,0 -0.01563,0 0,-1.9961 z m 1.132812,2.9961 11.751954,0 -1.115235,10.0039 -9.521484,0 -1.115235,-10.0039 z" color="#000" font-family="sans-serif" font-weight="400" overflow="visible" white-space="normal" style="line-height:normal;text-indent:0;text-align:start;text-decoration-line:none;text-decoration-style:solid;text-decoration-color:#000;text-transform:none;block-progression:tb;isolation:auto;mix-blend-mode:normal"/></g></svg>