<svg xmlns="http://www.w3.org/2000/svg" xml:space="preserve" viewBox="0 0 512 512" id="916368">
  <path fill="#5dd9b1" d="M62.5 440.668h65.637l-10.316-10.32 6.359-6.363 10.32 10.32v-16.137h9v16.137l10.32-10.32 6.359 6.363-10.316 10.32H251.5v-34.656l-22.781-23.844h-5.879c-32.457 0-61.34-32.715-61.34-58.5v-4.5h7.039l-21.496-22.5-129.543 144h45zM362.137 440.668l-10.317-10.32 6.36-6.364 10.32 10.321v-16.137h9v16.137l10.32-10.321 6.36 6.364-10.317 10.32H494.5l-108-99-104.547 96.23-21.453-22.464v25.234z" class="colorc7d95d svgShape"></path>
  <path fill="#3bc297" d="M458.5 440.668h-18v9h-378v-9h-18v9h-27v45h477v-45h-36v-9zM94 472.168H62.5v-9H94v9zm31.5 18H103v-9h22.5v9zm18-18H121v-9h22.5v9zm238.5 0h-27v-9h27v9zm45 18h-40.5v-9H427v9zm40.5-27v9H436v-9h31.5z" class="colora7c23b svgShape"></path>
  <path fill="#129269" d="M17.5 440.668h27v9h-27zM458.5 440.668h36v9h-36zM62.5 463.168H94v9H62.5zM103 481.168h22.5v9H103zM121 463.168h22.5v9H121zM436 463.168h31.5v9H436zM386.5 481.168H427v9h-40.5zM355 463.168h27v9h-27zM256.508 368.668h-1.016c.301 2.891.508 5.863.508 9 0-3.137.207-6.109.508-9zM251.5 382.168v58.5H149.863l10.316-10.32-6.359-6.363-10.32 10.32v-16.137h-9v16.137l-10.32-10.32-6.359 6.363 10.316 10.32H62.5v9h378v-9h-56.637l10.316-10.32-6.359-6.363-10.32 10.32v-16.137h-9v16.137l-10.32-10.32-6.359 6.363 10.316 10.32H260.5v-58.5h-9z" class="color5f7000 svgShape"></path>
  <path fill="#00cc8b" d="M222.84 373.168h23.809c-1.563-29.867-19.051-45-52.043-45h-23.727c3.125 19.316 25.211 45 51.961 45zm12.387-14.266-4.703 7.672-47.363-29.02 4.699-7.672 47.367 29.02z" class="colorccc600 svgShape"></path>
  <path fill="#129269" d="m230.508 366.574-47.364-29.017 4.7-7.674 47.365 29.018z" class="color5f7000 svgShape"></path>
  <path fill="#00cc8b" d="M341.121 328.168h-23.73c-32.984 0-50.477 15.133-52.039 45h23.809c26.749 0 48.831-25.684 51.96-45zm-64.348 30.734 47.367-29.02 4.703 7.672-47.367 29.02-4.703-7.672z" class="colorccc600 svgShape"></path>
  <path d="M161.5 323.668c0 25.785 28.883 58.5 61.34 58.5h66.32c32.457 0 61.34-32.715 61.34-58.5v-4.5h-33.109c-36.156 0-57.566 17.516-60.883 49.5-.301 2.891-.508 5.863-.508 9 0-3.137-.207-6.109-.508-9-3.316-31.984-24.723-49.5-60.887-49.5H161.5v4.5zm155.891 4.5h23.73c-3.129 19.316-25.211 45-51.961 45h-23.809c1.563-29.867 19.055-45 52.04-45zm-122.786 0c32.992 0 50.48 15.133 52.043 45H222.84c-26.75 0-48.836-25.684-51.961-45h23.726z" fill="#000000" class="color000000 svgShape"></path>
  <path fill="#129269" d="m276.774 358.904 47.367-29.02 4.701 7.674-47.367 29.02z" class="color5f7000 svgShape"></path>
  <path fill="#9fe0cb" d="m300.57 155.75 18.738-18.742-5.57-7.176-19.559 19.559a60.142 60.142 0 0 1 6.391 6.359zM264.535 146.152c-5.941 0-10.801 1.234-14.75 3.766l50.242 50.238c2.59-4 3.855-8.898 3.855-14.844.001-18.66-20.597-39.156-39.347-39.16zm19.914 32.063-15.906-15.914 6.363-6.363 15.906 15.914-6.363 6.363z" class="colorb7e09f svgShape"></path>
  <path fill="#ffffff" d="m284.46 178.214-15.905-15.915 6.365-6.361 15.905 15.914z" class="colorffffff svgShape"></path>
  <path d="M303.559 210.031c6.188-6.219 9.324-14.531 9.324-24.719 0-7.563-2.625-15.258-6.93-22.223l18.91-18.914 44.797 57.77c2.031 2.617 7.824 9.219 17.758 9.219h.004c6.023 0 11.672-2.875 15.91-7.117l60.258-60.781c4.25-4.254 6.59-9.902 6.59-15.906 0-5.297-1.738-9.387-3.75-12.391l5.215-5.215c8.297-8.297 12.863-19.484 12.863-31.496 0-12.25-4.922-24.199-13.5-32.781L456.363 30.84c-8.578-8.582-20.52-13.504-32.77-13.504-12.008 0-23.199 4.57-31.5 12.867l-14.305 14.305-2.211-1.723a22.587 22.587 0 0 0-13.813-4.734c-6.008 0-11.66 2.359-15.91 6.605L304.69 85.851c-4.246 4.25-6.59 9.965-6.59 15.984 0 4.977 1.688 10.012 4.734 13.938l5.344 6.891-21.375 21.371c-6.977-4.277-14.691-6.883-22.27-6.883-10.215 0-18.504 3.109-24.633 9.242l-3.18 3.18 63.652 63.656 3.187-3.199zm21.343-80.816 64.379-64.383 64.438 50.117-78.695 78.699-50.122-64.433zm132.325 7.687-60.262 60.258c-2.504 2.508-5.98 3.949-9.547 3.953-2.313 0-4.238-.559-5.813-1.316l78.258-78.262a13.248 13.248 0 0 1 1.316 5.82 13.438 13.438 0 0 1-3.952 9.547zm-58.77-100.336c6.602-6.598 15.527-10.23 25.137-10.23 9.875 0 19.5 3.957 26.406 10.867l14.645 14.637c6.902 6.91 10.863 16.539 10.863 26.418 0 9.609-3.633 18.535-10.227 25.133l-5.152 5.148-75.176-58.469 13.504-13.504zm-91.355 65.141c0-3.613 1.406-7.012 3.953-9.559l41.168-41.16a13.405 13.405 0 0 1 9.543-3.953c3.031 0 5.895.984 8.289 2.84l12.07 9.387-62.789 62.789-9.395-12.07a13.383 13.383 0 0 1-2.839-8.274zm6.636 28.125 5.57 7.176-18.738 18.742a60.236 60.236 0 0 0-6.391-6.359l19.559-19.559zm-63.953 20.086c3.949-2.531 8.809-3.766 14.75-3.766 18.75.004 39.348 20.5 39.348 39.16 0 5.945-1.266 10.844-3.855 14.844l-50.243-50.238z" fill="#000000" class="color000000 svgShape"></path>
  <path fill="#9fe0cb" d="m389.281 64.832-64.379 64.383 50.121 64.434 78.695-78.699-64.437-50.118zM374.32 164.848l-27-27 6.359-6.363 27 27-6.359 6.363zM381.605 199.797c1.574.758 3.5 1.316 5.813 1.316 3.566-.004 7.043-1.445 9.547-3.953l60.262-60.258a13.44 13.44 0 0 0 3.953-9.547c0-2.309-.555-4.238-1.316-5.82l-78.259 78.262zM319.336 122.051l62.789-62.789-12.07-9.387a13.418 13.418 0 0 0-8.289-2.84c-3.605 0-7 1.406-9.543 3.953l-41.168 41.16a13.434 13.434 0 0 0-3.953 9.559c0 3.023.984 5.883 2.84 8.273l9.394 12.071zm15.48-40.934 6.363 6.363-15.91 15.91-6.363-6.363 15.91-15.91z" class="colorb7e09f svgShape"></path>
  <path fill="#ffffff" d="m334.814 81.114 6.363 6.363-15.91 15.91-6.363-6.363zM347.32 137.848l27 27 6.36-6.364-27-27z" class="colorffffff svgShape"></path>
  <path fill="#69ffcf" d="M148 148.164c34.797 0 63-28.203 63-63s-28.203-63-63-63c-34.793 0-63 28.203-63 63s28.207 63 63 63zm0-105.004c23.199 0 42.004 18.809 42.004 42.004S171.199 127.168 148 127.168c-23.195 0-42-18.809-42-42.004s18.805-42.004 42-42.004z" class="colorffdf69 svgShape"></path>
  <path fill="#30ffbd" d="M148 127.168c23.199 0 42.004-18.809 42.004-42.004S171.199 43.16 148 43.16c-23.195 0-42 18.809-42 42.004s18.805 42.004 42 42.004zm0-64.504c12.406 0 22.5 10.094 22.5 22.5s-10.094 22.5-22.5 22.5-22.5-10.094-22.5-22.5 10.094-22.5 22.5-22.5z" class="colorffbb30 svgShape"></path>
  <path fill="#52deb1" d="M148 98.664c7.445 0 13.5-6.055 13.5-13.5s-6.055-13.5-13.5-13.5-13.5 6.055-13.5 13.5 6.055 13.5 13.5 13.5z" class="colorde6e52 svgShape"></path>
  <path d="M148 107.664c12.406 0 22.5-10.094 22.5-22.5s-10.094-22.5-22.5-22.5-22.5 10.094-22.5 22.5 10.094 22.5 22.5 22.5zm0-36c7.445 0 13.5 6.055 13.5 13.5s-6.055 13.5-13.5 13.5-13.5-6.055-13.5-13.5 6.055-13.5 13.5-13.5z" fill="#000000" class="color000000 svgShape"></path>
  <path fill="#7bd4b7" d="M229 197.664h9v18h-9zM229 233.664h9v18h-9zM229 269.668h9v18h-9zM247 215.664h9v18h-9zM247 179.664h9v18h-9zM229 157.164h9v18h-9zM247 251.664h9v18.004h-9zM247 287.668h9v18h-9zM229 305.668h9v18h-9zM265 305.668h9v18h-9zM265 197.664h9v18h-9zM265 233.664h9v18h-9zM265 269.668h9v18h-9zM283 287.668h9v18h-9zM283 247.164h9v18.004h-9zM283 215.664h9v18h-9zM373 274.168h4.5c4.965 0 9 4.035 9 9h9c0-9.934-8.078-18-18-18H373c-9.922 0-18 8.066-18 18v4.5c0 9.922 8.078 18 18 18h45v-9h-45c-4.965 0-9-4.043-9-9v-4.5c0-4.965 4.035-9 9-9zM427 296.668h18v9h-18zM85 247.164h54v-9H85c-4.965 0-9-4.039-9-9v-4.5c0-4.961 4.035-9 9-9h4.5c4.965 0 9 4.039 9 9h9c0-9.926-8.074-18-18-18H85c-9.926 0-18 8.074-18 18v4.5c0 9.93 8.074 18 18 18zM148 238.164h18v9h-18z" class="color7bcad4 svgShape"></path>
</svg>
