<svg xmlns="http://www.w3.org/2000/svg" width="48" height="48" viewBox="0 0 48 48"><g transform="translate(0 -1004.362)"><circle cx="24" cy="1028.362" r="24" fill="#3a6c87"/><path fill="#2f4b6c" style="line-height:normal;text-indent:0;text-align:start;text-decoration-line:none;text-decoration-style:solid;text-decoration-color:#000;text-transform:none;block-progression:tb;isolation:auto;mix-blend-mode:normal" d="M 18.269531 12.923828 L 18.269531 12.931641 A 0.50005 0.50005 0 0 0 17.814453 13.277344 L 17.148438 15.345703 L 16.671875 14.869141 C 16.564312 14.761583 16.449259 14.66736 16.330078 14.580078 C 16.305905 14.562362 16.280448 14.548116 16.255859 14.53125 C 16.138499 14.450778 16.016041 14.381077 15.890625 14.320312 C 15.848302 14.299797 15.806736 14.279948 15.763672 14.261719 C 15.612658 14.197787 15.4604 14.142608 15.302734 14.107422 C 14.927359 14.023422 14.539269 14.021422 14.164062 14.107422 C 13.413653 14.282622 12.726389 14.806147 12.337891 15.623047 C 11.953786 16.430747 11.858849 17.5059 12.167969 18.8125 L 13.398438 26.974609 L 12.115234 30.957031 L 11.636719 30.828125 A 0.50004994 0.50004994 0 0 0 11.488281 30.804688 A 0.50004994 0.50004994 0 0 0 11.376953 31.789062 L 27.328125 47.742188 A 23.999998 23.999998 0 0 0 27.9375 47.667969 L 12.308594 32.037109 A 0.50005 0.50005 0 0 0 12.314453 32.037109 L 27.943359 47.666016 A 23.999998 23.999998 0 0 0 47.667969 27.804688 L 42.197266 22.333984 L 41.861328 22.138672 L 41.78125 22.099609 L 41.205078 21.892578 L 40.9375 22.630859 L 40.044922 21.738281 L 39.695312 21.738281 L 39.607422 21.748047 L 38.970703 21.865234 L 38.886719 21.888672 L 38.884766 21.888672 L 39.0625 22.365234 L 39.152344 22.847656 L 40.460938 24.15625 L 40.349609 24.748047 L 39.361328 23.759766 L 39.328125 23.765625 L 37.894531 22.332031 L 37.623047 22.494141 L 37.550781 22.544922 L 37.130859 22.908203 L 30.720703 16.496094 A 0.50005 0.50005 0 0 0 30.367188 16.142578 L 18.417969 12.941406 A 0.50005 0.50005 0 0 0 18.269531 12.923828 z " color="#000" font-family="sans-serif" font-weight="400" transform="translate(0 1004.362)" white-space="normal"/><path fill="#fff" d="m 18.268909,1017.293 0,0 a 0.50005,0.50005 0 0 0 -0.455078,0.3457 l -0.695312,2.1602 c -0.438709,-0.7131 -1.103356,-1.1709 -1.816406,-1.3301 -0.375375,-0.084 -0.763467,-0.086 -1.138672,0 -0.750411,0.1752 -1.437674,0.6988 -1.826172,1.5157 -0.384105,0.8077 -0.479042,1.8828 -0.169922,3.1894 l 1.230469,8.1621 -1.283203,3.9824 -0.478516,-0.1289 a 0.50004994,0.50004994 0 0 0 -0.148437,-0.022 l 0,0 a 0.50004994,0.50004994 0 0 0 -0.111328,0.9844 l 0.927734,0.2481 0.0039,0 a 0.50005,0.50005 0 0 0 0.0059,0 l 13.789062,3.6933 0.9375,0.252 a 0.50029223,0.50029223 0 1 0 0.257812,-0.9668 l -0.478516,-0.1289 0.595704,-2.7676 9.441406,-5.9434 0.207031,0.3575 a 0.50005048,0.50005048 0 1 0 0.865235,-0.5 l -0.458985,-0.795 a 0.50005048,0.50005048 0 0 0 -0.0078,-0.014 l -0.951188,-1.6467 a 0.50005048,0.50005048 0 0 0 -0.002,0 l -0.484375,-0.8398 a 0.50005048,0.50005048 0 0 0 -0.455079,-0.2559 0.50005048,0.50005048 0 0 0 -0.410156,0.7559 l 0.226563,0.3906 -6.929688,3.6504 2.269531,-10.5488 a 0.50005,0.50005 0 0 0 -0.359327,-0.5879 l -11.949219,-3.2011 a 0.50005,0.50005 0 0 0 -0.148438,-0.018 z m 0.34961,1.1074 11.03125,2.9531 -3.794922,17.6465 -12.773438,-3.4219 5.53711,-17.1777 z m -3.875,1.002 c 0.826132,-0.019 1.692321,0.5627 1.873047,1.9531 l -2.53125,7.8476 -0.929688,-6.1738 a 0.50005,0.50005 0 0 0 -0.0078,-0.045 c -0.28211,-1.1622 -0.17538,-2.0045 0.09179,-2.5664 0.267174,-0.5618 0.688498,-0.8628 1.150391,-0.9707 0.115473,-0.027 0.234015,-0.042 0.353515,-0.045 z m 24.951171,6.6972 -0.08789,0.01 -0.636719,0.1172 -0.08398,0.024 -0.002,0 0.177734,0.4765 0.08984,0.4824 0.595703,-0.1093 0.302734,0 -0.0059,-1 -0.34961,0 z m 1.509766,0.1543 -0.339844,0.9395 0.535157,0.1953 0.294921,0.1699 0.501954,-0.8633 -0.335938,-0.1953 -0.08008,-0.039 -0.576172,-0.2071 z m -3.310547,0.4395 -0.271484,0.1621 -0.07227,0.051 -0.517578,0.4472 0.652344,0.7578 0.486328,-0.4218 0.232422,-0.1348 -0.509766,-0.8613 z m 1.466797,1.4277 -0.419922,0.062 -0.0293,0.01 -0.02734,0.01 -0.417969,0.1211 -0.02734,0.01 -0.02734,0.012 -0.40625,0.1719 0.390625,0.9199 0.382813,-0.1621 0.353515,-0.1015 0.392579,-0.066 -0.164063,-0.9863 z m 1.171875,0.021 -0.1875,0.9902 0.255859,0.049 0.367188,0.1152 0.371094,0.166 0.410156,-0.9121 -0.402344,-0.1797 -0.02734,-0.012 -0.02734,-0.012 -0.414063,-0.1309 -0.0293,-0.01 -0.02734,-0.01 -0.289063,-0.055 z m -4.646484,0.7227 0.470703,0.8144 -8.646484,5.4434 0.472656,-2.1993 7.703125,-4.0585 z" color="#000" font-family="sans-serif" font-weight="400" overflow="visible" white-space="normal" style="line-height:normal;text-indent:0;text-align:start;text-decoration-line:none;text-decoration-style:solid;text-decoration-color:#000;text-transform:none;block-progression:tb;isolation:auto;mix-blend-mode:normal"/></g></svg>