<svg xmlns="http://www.w3.org/2000/svg" width="48" height="48" viewBox="0 0 48 48"><g transform="translate(0 -1004.362)"><circle cx="24" cy="1028.362" r="24" fill="#ef4c45" fill-rule="evenodd"/><path fill="#df2209" style="line-height:normal;text-indent:0;text-align:start;text-decoration-line:none;text-decoration-style:solid;text-decoration-color:#000;text-transform:none;block-progression:tb;isolation:auto;mix-blend-mode:normal" d="M 32.015625 11.751953 C 31.881649 11.751953 31.739022 11.765922 31.589844 11.794922 C 31.063445 11.896222 30.425521 12.300031 29.763672 12.894531 L 18.833984 12.894531 C 18.263912 12.397831 17.700833 12.052878 17.236328 11.955078 C 16.711043 11.844478 16.288789 11.901438 16.15625 11.898438 L 16.146484 11.898438 L 17.238281 12.990234 C 17.221622 12.98489 17.20578 12.981345 17.189453 12.976562 L 16.111328 11.898438 C 15.983094 11.898438 15.797485 11.918428 15.623047 12.048828 C 15.18952 12.373628 15.028209 12.898091 15.001953 13.650391 C 14.977703 14.345191 15.211596 15.259219 15.710938 16.261719 C 15.461486 18.030719 15.300781 20.755731 15.300781 23.894531 C 15.300781 27.033331 15.461464 29.753391 15.710938 31.525391 C 15.211334 32.528391 14.977635 33.441519 15.001953 34.136719 C 15.025233 34.802019 15.153547 35.292194 15.482422 35.621094 L 27.572266 47.710938 A 23.999998 23.999998 0 0 0 47.810547 26.859375 L 33.119141 12.167969 C 33.075501 12.123969 33.029469 12.083422 32.978516 12.044922 C 32.746358 11.871522 32.417551 11.751853 32.015625 11.751953 z " color="#000" font-family="sans-serif" font-weight="400" transform="translate(0 1004.362)" white-space="normal"/><path fill="#fff" d="m 32.015408,1016.115 c -0.133976,0 -0.276604,0.014 -0.425782,0.043 -0.526399,0.1013 -1.164322,0.5052 -1.826171,1.0997 l -10.929688,0 c -0.570072,-0.4967 -1.133151,-0.8417 -1.597656,-0.9395 -0.525285,-0.1106 -0.947539,-0.054 -1.080078,-0.057 l -0.0098,0 a 0.50005,0.50005 0 0 0 -0.01367,0 0.50005,0.50005 0 0 0 -0.02148,0 c -0.128234,0 -0.313844,0.02 -0.488282,0.1504 -0.433527,0.3248 -0.594837,0.8492 -0.621093,1.6015 -0.02425,0.6948 0.209642,1.6088 0.708984,2.6113 -0.249451,1.769 -0.410128,4.4944 -0.410128,7.6332 0,3.1388 0.160682,5.8588 0.410156,7.6308 -0.499603,1.003 -0.733302,1.9161 -0.708984,2.6113 0.02636,0.7534 0.186436,1.2808 0.621094,1.6055 0.582272,0.4349 1.801877,0.4185 3.21289,-0.8476 l 10.929688,0 c 1.411013,1.2661 2.630618,1.2825 3.21289,0.8476 0.434659,-0.3247 0.594736,-0.8521 0.621094,-1.6055 0.02432,-0.6952 -0.209381,-1.6083 -0.708984,-2.6113 0.249474,-1.772 0.410156,-4.492 0.410156,-7.6308 0,-3.1388 -0.160674,-5.8625 -0.410156,-7.6348 0.499341,-1.0025 0.733234,-1.9165 0.708984,-2.6113 -0.02628,-0.7531 -0.186525,-1.279 -0.621094,-1.6036 -0.232158,-0.1734 -0.560964,-0.293 -0.96289,-0.2929 z m -0.240235,1.0293 0,0 c 0.365768,-0.065 0.574099,0.04 0.605469,0.062 -0.06137,-0.046 0.199443,0.2829 0.21875,0.836 0.01931,0.5532 -0.1186,1.3431 -0.648437,2.3164 a 0.50005,0.50005 0 0 0 -0.05469,0.3105 c 0.241961,1.6809 0.404299,4.4416 0.404299,7.584 0,3.1424 -0.162332,5.8992 -0.404297,7.5801 a 0.50005,0.50005 0 0 0 0.05469,0.3105 c 0.530128,0.9737 0.669755,1.7648 0.65039,2.3184 -0.01936,0.5535 -0.282062,0.8817 -0.220703,0.8359 -0.06274,0.047 -0.836718,0.4242 -2.154297,-0.8984 a 0.50005,0.50005 0 0 0 -0.353517,-0.1465 l -11.144532,0 a 0.50005,0.50005 0 0 0 -0.353515,0.1465 c -1.317579,1.3226 -2.091557,0.9453 -2.154297,0.8984 0.06136,0.046 -0.201339,-0.2824 -0.220703,-0.8359 -0.01936,-0.5536 0.120262,-1.3447 0.65039,-2.3184 a 0.50005,0.50005 0 0 0 0.05469,-0.3105 c -0.241967,-1.6781 -0.404299,-4.4333 -0.404299,-7.5757 0,-3.1424 0.162338,-5.9031 0.404297,-7.584 a 0.50005,0.50005 0 0 0 -0.05469,-0.3106 c -0.529838,-0.9733 -0.667744,-1.7632 -0.648437,-2.3164 0.01809,-0.5182 0.226464,-0.7823 0.205078,-0.7832 0.276181,7e-4 0.514272,-0.034 0.824219,0.031 0.354003,0.075 0.792329,0.259 1.34375,0.8125 a 0.50005,0.50005 0 0 0 0.353515,0.1484 l 11.144532,0 a 0.50005,0.50005 0 0 0 0.353515,-0.1484 c 0.658789,-0.6613 1.183061,-0.8975 1.548828,-0.9629 z m -12.974609,7.1113 a 0.50005,0.50005 0 0 0 -0.5,0.5 l 0,6 a 0.50005,0.50005 0 0 0 0.5,0.5 l 11,0 a 0.50005,0.50005 0 0 0 0.5,-0.5 l 0,-6 a 0.50005,0.50005 0 0 0 -0.5,-0.5 l -11,0 z m 0.5,1 10,0 0,5 -10,0 0,-5 z m 1,1 0,1 5,0 0,-1 -5,0 z m 0,2 0,1 3,0 0,-1 -3,0 z" color="#000" font-family="sans-serif" font-weight="400" overflow="visible" white-space="normal" style="line-height:normal;text-indent:0;text-align:start;text-decoration-line:none;text-decoration-style:solid;text-decoration-color:#000;text-transform:none;block-progression:tb;isolation:auto;mix-blend-mode:normal"/></g></svg>