<svg xmlns="http://www.w3.org/2000/svg" width="48" height="48" viewBox="0 0 48 48"><g transform="translate(0 -1004.362)"><circle cx="24" cy="1028.362" r="24" fill="#ffa40b" fill-rule="evenodd"/><path fill="#ff7712" style="line-height:normal;text-indent:0;text-align:start;text-decoration-line:none;text-decoration-style:solid;text-decoration-color:#000;text-transform:none;block-progression:tb;isolation:auto;mix-blend-mode:normal" d="M 20.992188 8 L 20.992188 8.0058594 L 20.992188 11 C 20.992188 11.128489 21.007673 11.253318 21.03125 11.375 C 21.037444 11.406929 21.046969 11.437383 21.054688 11.46875 C 21.076837 11.558816 21.104606 11.645663 21.138672 11.730469 C 21.152558 11.765134 21.167831 11.798352 21.183594 11.832031 C 21.219491 11.908581 21.259656 11.981819 21.304688 12.052734 C 21.325247 12.085173 21.344836 12.117288 21.367188 12.148438 C 21.416713 12.217391 21.471576 12.281678 21.529297 12.34375 C 21.546051 12.361771 21.558771 12.382992 21.576172 12.400391 L 22.492188 13.316406 L 22.492188 27.994141 L 20.992188 27.994141 C 19.338828 27.994141 17.992188 29.340741 17.992188 30.994141 L 17.992188 39.494141 A 0.50005 0.50005 0 0 0 17.992188 39.503906 A 0.50005 0.50005 0 0 0 17.992188 39.523438 A 0.50005 0.50005 0 0 0 17.994141 39.546875 A 0.50005 0.50005 0 0 0 17.996094 39.560547 A 0.50005 0.50005 0 0 0 18.003906 39.609375 A 0.50005 0.50005 0 0 0 18.017578 39.658203 A 0.50005 0.50005 0 0 0 18.035156 39.707031 A 0.50005 0.50005 0 0 0 18.058594 39.751953 A 0.50005 0.50005 0 0 0 18.083984 39.792969 A 0.50005 0.50005 0 0 0 18.115234 39.832031 A 0.50005 0.50005 0 0 0 18.150391 39.867188 A 0.50005 0.50005 0 0 0 18.1875 39.898438 A 0.50005 0.50005 0 0 0 18.228516 39.927734 A 0.50005 0.50005 0 0 0 18.304688 39.966797 A 0.50005 0.50005 0 0 0 18.310547 39.966797 A 0.50005 0.50005 0 0 0 18.326172 39.976562 A 0.50005 0.50005 0 0 0 18.464844 40.003906 A 0.50005 0.50005 0 0 0 18.5 40.003906 L 26.355469 47.859375 A 23.999998 23.999998 0 0 0 47.552734 28.566406 L 26.992188 8.0058594 L 26.492188 8.0058594 L 20.998047 8.0058594 L 20.992188 8 z " color="#000" font-family="sans-serif" font-weight="400" transform="translate(0 1004.362)" white-space="normal"/><path fill="#fff" d="m 20.992624,1012.3622 0,3 c 0,0.9259 0.641626,1.7031 1.5,1.9277 l 0,15.0664 -1.5,0 c -1.65336,0 -3,1.3466 -3,3 l 0,8.5 a 0.50005,0.50005 0 0 0 0,0.01 0.50005,0.50005 0 0 0 0,0.02 0.50005,0.50005 0 0 0 0.002,0.023 0.50005,0.50005 0 0 0 0.002,0.014 0.50005,0.50005 0 0 0 0.0078,0.049 0.50005,0.50005 0 0 0 0.01367,0.049 0.50005,0.50005 0 0 0 0.01758,0.047 0.50005,0.50005 0 0 0 0.02344,0.045 0.50005,0.50005 0 0 0 0.02539,0.041 0.50005,0.50005 0 0 0 0.03125,0.039 0.50005,0.50005 0 0 0 0.03516,0.037 0.50005,0.50005 0 0 0 0.03711,0.031 0.50005,0.50005 0 0 0 0.04102,0.029 0.50005,0.50005 0 0 0 0.07617,0.039 0.50005,0.50005 0 0 0 0.0059,0 0.50005,0.50005 0 0 0 0.01563,0.01 0.50005,0.50005 0 0 0 0.138672,0.027 0.50005,0.50005 0 0 0 0.03511,0 l 2,0 a 0.50005,0.50005 0 0 0 0.5,-0.5 l 0,-7.5 1.5,0 0,7.5 a 0.50005,0.50005 0 0 0 0.5,0.5 l 1.994141,0 a 0.50005,0.50005 0 0 0 0.5,-0.5 l 0,-7.5 1.498047,0 0,7.5 a 0.50005,0.50005 0 0 0 0.5,0.5 l 2.007812,0 a 0.50005,0.50005 0 0 0 0.05078,0 0.50005,0.50005 0 0 0 0.441407,-0.6191 l 0,-8.3848 c 0,-1.6534 -1.346642,-3 -3,-3 l -1.5,0 0,-15.0664 c 0.858372,-0.2246 1.5,-1.0018 1.5,-1.9277 l 0,-3 -0.5,0 -5.5,0 z m 1,1 4,0 0,1 -4,0 0,-1 z m 0,2 4,0 c 0,0.5627 -0.437353,1 -1,1 l -2,0 c -0.56265,0 -1.000001,-0.4373 -1,-1 z m 1.5,2 1,0 0,14.9941 -1,0 0,-14.9941 z m -2.5,15.9941 1.93164,0 a 0.50004997,0.50004997 0 0 0 0.06836,0.01 l 2,0 a 0.50004997,0.50004997 0 0 0 0.0625,-0.01 l 1.9375,0 c 1.116658,0 1.999998,0.8833 2,2 l 0,8.0059 -1,0 0,-7.5 a 0.50005,0.50005 0 0 0 -0.5,-0.5 l -2.498047,0 a 0.50005,0.50005 0 0 0 -0.5,0.5 l 0,7.5 -0.994141,0 0,-7.5 a 0.50005,0.50005 0 0 0 -0.5,-0.5 l -2.5,0 a 0.50005,0.50005 0 0 0 -0.5,0.5 l 0,7.5 -1.007812,0 0,-8.0059 c 0,-1.1167 0.883339,-2 2,-2 z" color="#000" font-family="sans-serif" font-weight="400" overflow="visible" white-space="normal" style="line-height:normal;text-indent:0;text-align:start;text-decoration-line:none;text-decoration-style:solid;text-decoration-color:#000;text-transform:none;block-progression:tb;isolation:auto;mix-blend-mode:normal"/></g></svg>