<svg xmlns="http://www.w3.org/2000/svg" viewBox="0 0 512 512" id="7678370">
  <rect width="6" height="18.71" x="220.3" y="49.05" fill="#129269" transform="rotate(-45 223.299 58.397)" class="color5e6175 svgShape"></rect>
  <rect width="18.71" height="6" x="201.4" y="77.44" fill="#129269" class="color5e6175 svgShape"></rect>
  <rect width="6" height="18.71" x="241.2" y="36" fill="#129269" class="color5e6175 svgShape"></rect>
  <polygon fill="#0ee19d" points="91.23 110.36 41.65 142.41 91.23 176.08 276.46 176.08 276.46 110.36 91.23 110.36" class="colore1830e svgShape"></polygon>
  <polygon fill="#a9c4bb" points="403.02 176.08 234.32 176.08 234.32 240.19 403.02 240.19 452.6 208.14 403.02 176.08" class="colora9afc4 svgShape"></polygon>
  <path fill="#129269" d="M163.14 237a9.18 9.18 0 1115.69-6.43A9.19 9.19 0 01163.14 237zm6.52-9.64a3.17 3.17 0 103.17 3.19A3.18 3.18 0 00169.66 227.32zM394.72 160.57a10 10 0 1117-7A10 10 0 01394.72 160.57zm7.07-11a4 4 0 102.8 1.17A4 4 0 00401.79 149.61zM108.66 210.46a12.55 12.55 0 018.9-21.35c11.06 0 16.8 13.5 8.82 21.42A12.53 12.53 0 01108.66 210.46zm8.9-15.35a6.53 6.53 0 104.63 1.93A6.54 6.54 0 00117.56 195.11z" class="color5e6175 svgShape"></path>
  <path fill="#0ee19d" d="M234.19,194.34c.46,0-.46,0,0,0C233.73,194.33,234.65,194.33,234.19,194.34Z" class="colore1830e svgShape"></path>
  <path fill="#f5f5f5" d="M273.32,402.55h-36V89a18,18,0,0,1,36,0Z" class="colorf5f5f5 svgShape"></path>
  <path fill="#129269" d="M276.32,405.55h-42V89a21,21,0,0,1,42,0Zm-36-6h30V89a15,15,0,0,0-30,0Z" class="color5e6175 svgShape"></path>
  <path fill="#0ee19d" d="M204.34,380a17,17,0,0,0-11.11,4c-8.26,7.1-13.1,16.84-15,21.14h-1.74c-6.24-14.89-20.06-24.74-27.16-29a17.2,17.2,0,0,0-8.85-2.43h-1.41c20.31,24.6,15.62,55.56,15.62,55.56h41.2C189.45,404,204.34,380,204.34,380Z" class="colore1830e svgShape"></path>
  <path fill="#a9c4bb" d="M407.93,335.16h-6v-6h6Zm0-16h-6v-6h6Zm0-16h-6v-6h6Zm0-16h-6v-6h6Zm0-16h-6v-6h6Zm0-16h-6v-6h6Z" class="colora9afc4 svgShape"></path>
  <rect width="71.11" height="77.98" x="220.46" y="351.28" fill="#129269" class="color5e6175 svgShape"></rect>
  <rect width="247.3" height="6" x="106.78" y="426.25" fill="#129269" class="color5e6175 svgShape"></rect>
  <circle cx="405.06" cy="410.71" r="65.29" fill="#f5f5f5" class="colorf5f5f5 svgShape"></circle>
  <path fill="#129269" d="M405.06,479a68.3,68.3,0,1,1,68.29-68.29A68.37,68.37,0,0,1,405.06,479Zm0-130.59a62.3,62.3,0,1,0,62.29,62.3A62.37,62.37,0,0,0,405.06,348.41Z" class="color5e6175 svgShape"></path>
  <path fill="#0ee19d" d="M412.27,426.27H397.85a30.82,30.82,0,0,1,12.8-25,9.59,9.59,0,1,0-15.17-7.79H381.06a24,24,0,1,1,38,19.49A16.37,16.37,0,0,0,412.27,426.27Z" class="colore1830e svgShape"></path>
  <rect width="14.48" height="14.48" x="397.69" y="437.42" fill="#0ee19d" class="colore1830e svgShape"></rect>
</svg>
